Coordinates
version=1
nRows=13
nColumns=36
inDegrees=yes

Units are S.I. units (second, meters, Newtons, ...)
If the header above contains a line with 'inDegrees', this indicates whether rotational values are in degrees (yes) or radians (no).

endheader
time	pelvis_tilt	pelvis_list	pelvis_rotation	pelvis_tx	pelvis_ty	pelvis_tz	hip_flexion_r	hip_adduction_r	hip_rotation_r	knee_angle_r	knee_angle_r_beta	ankle_angle_r	subtalar_angle_r	mtp_angle_r	hip_flexion_l	hip_adduction_l	hip_rotation_l	knee_angle_l	knee_angle_l_beta	ankle_angle_l	subtalar_angle_l	mtp_angle_l	lumbar_extension	lumbar_bending	lumbar_rotation	arm_flex_r	arm_add_r	arm_rot_r	elbow_flex_r	pro_sup_r	arm_flex_l	arm_add_l	arm_rot_l	elbow_flex_l	pro_sup_l
      3.45000000	    -13.02974145	     -2.82069625	     -9.21444604	      1.55727296	      0.78052378	      0.12495405	     60.19798732	     -5.69251505	     -0.52272197	     89.98207459	      1.57048347	     47.66876721	     -1.30266402	     -7.49999987	     64.35291502	    -16.07411539	      2.42617964	     97.19115533	      1.69630566	     42.60345521	      0.62186308	     -7.49999987	     -8.09181035	     -0.21636422	      6.58750156	     56.26461516	      0.36976314	     21.81039977	     78.61428314	     92.70979675	    411.22115749	     -9.33581595	    386.10627224	     91.07111486	     92.92646531
      3.46666670	    -14.61218604	     -3.05133819	     -9.39621971	      1.54856982	      0.77715476	      0.11610430	     62.17993543	     -5.46531187	     -1.32657535	     89.65514210	      1.56477742	     47.51172177	     -1.19767405	     -7.49999987	     66.58669221	    -16.59566164	      2.69214712	     96.89989889	      1.69122228	     41.86922280	      0.61539818	     -7.49999987	     -7.07648213	      0.14813389	      6.19309704	     56.99271175	     -1.50124080	     23.25227573	     84.19460394	     90.53992911	    410.87368334	    -10.04312387	    385.68974368	     95.04241607	     91.01570661
      3.48333330	    -15.91143665	     -3.06683360	     -9.52816698	      1.53525477	      0.77950255	      0.11011371	     63.92508908	     -5.56814116	     -1.94780117	     88.98949253	      1.55315964	     47.05891371	     -0.84503084	     -7.49999987	     68.36907542	    -16.72412488	      2.61756955	     96.19744477	      1.67896214	     41.00790100	      0.37328755	     -7.49999987	     -6.49547093	      0.38842871	      6.10885154	     57.67090495	     -3.50520351	     23.15445199	     89.58681132	     96.31998134	    410.27647472	    -10.12241922	    383.11920954	     98.51920963	     99.01959539
      3.50000000	    -16.64724680	     -2.93176436	     -9.62530003	      1.53562776	      0.78506693	      0.10882914	     64.74129785	     -5.73140260	     -2.20723131	     87.92858442	      1.53464330	     46.25428581	     -0.56949982	     -7.49999987	     68.84279107	    -16.53027905	      2.29928679	     94.74571116	      1.65362461	     40.06258292	     -0.33466367	     -7.49999987	     -5.93049215	      0.40812540	      5.87885380	     57.35899267	     -5.06699294	     23.43425703	     93.84978703	     96.32192898	    408.98778913	    -10.29445434	    380.67585736	    101.60007775	     98.87208260
      3.51666670	    -17.01344546	     -2.88058990	     -9.59707643	      1.53130653	      0.79458425	      0.11054914	     64.75396068	     -5.72162031	     -2.41984381	     86.37885888	      1.50759549	     45.24928575	     -0.42850688	     -7.49999987	     68.58876798	    -16.27384930	      2.06493448	     92.89453592	      1.62131551	     39.34364544	     -0.71772451	     -7.49999987	     -5.78518070	      0.41652219	      5.52459855	     57.14993428	     -6.13923535	     22.68390588	     98.05605044	     96.16073979	    407.84426476	    -10.82964799	    378.00497653	    104.86740290	     98.63269314
      3.53333330	    -17.34022381	     -2.67204992	     -9.54673993	      1.52725576	      0.80237786	      0.10567360	     64.60094369	     -5.85493355	     -2.46545366	     84.64942255	      1.47741113	     44.06239411	     -0.29146960	     -7.49999987	     67.98204596	    -15.90933506	      1.60250864	     90.70238224	      1.58305521	     38.63109393	     -1.01664789	     -7.49999987	     -5.31399699	      0.31664232	      4.69798905	     56.52848944	     -7.39322930	     22.21893961	    100.64863115	     96.20748714	    405.99195853	    -11.55265095	    375.87766572	    107.10461971	     98.64001748
      3.55000000	    -17.35981030	     -2.50972614	     -9.34618381	      1.53143427	      0.82000574	      0.10312627	     63.43860422	     -6.00332594	     -2.49910353	     82.12439701	      1.43334112	     42.75333993	     -0.31853644	     -7.49999987	     66.36669416	    -15.38719584	      1.02912930	     87.72122930	      1.53102428	     37.90991655	     -1.37014281	     -7.49999987	     -5.05252256	      0.37758455	      3.62737715	     54.12248254	     -8.29663938	     21.85142307	    103.95767840	     95.59114941	    401.15412102	    -13.91657936	    373.01263044	    110.15187000	     98.92935990
      3.56666670	    -17.04702110	     -2.41006055	     -9.13714929	      1.53224357	      0.84455194	      0.10164500	     61.15357597	     -6.04453628	     -2.56791108	     78.52895041	      1.37058874	     41.00229157	     -0.58458990	     -7.49999987	     63.63594826	    -14.87046315	      0.27383550	     83.76801002	      1.46202758	     36.93742885	     -1.65130026	     -7.49999987	     -5.26356690	      0.06974813	      2.98560127	     50.34128265	     -9.62196310	     20.84831130	    106.32855931	     93.35116242	    396.68503058	    -15.59433429	    370.98171539	    112.11817645	     96.70875886
      3.58333330	    -16.59833899	     -2.10263303	     -9.02279352	      1.54068308	      0.85585046	      0.09558506	     58.57055798	     -6.30497974	     -2.45182352	     74.83809482	      1.30617116	     39.07683142	     -1.02902122	     -7.49999987	     60.49804732	    -14.09249691	     -0.63943310	     79.79038120	      1.39260486	     35.95497351	     -1.99874081	     -7.49999987	     -4.97226585	     -0.16627420	      2.23521639	     46.84528290	    -11.89369866	     19.96279481	    111.02074035	     93.42654377	    392.78458559	    -17.05612806	    369.64784585	    114.77097394	     96.62964155
      3.60000000	    -16.16679796	     -1.85896360	     -8.81117604	      1.53728261	      0.87939199	      0.09005635	     55.66072418	     -6.72474657	     -2.62910436	     70.58224658	      1.23189260	     37.19824219	     -0.97894196	     -7.49999987	     57.21217670	    -13.20206607	     -1.40143923	     75.35366079	      1.31516948	     35.17618051	     -2.02884297	     -7.49999987	     -4.95782236	     -0.34461509	      0.70475398	     43.18215490	    -13.95960814	     20.41716683	    113.95865085	     91.68178859	    387.96637752	    -18.86957461	    368.58572782	    117.81062807	     94.95873610
      3.61666670	    -15.63029649	     -1.60704920	     -8.61372841	      1.54298940	      0.90094292	      0.09508877	     52.32746993	     -7.06851745	     -3.01141812	     65.97703047	      1.15151641	     35.11212403	     -0.96960685	     -7.49999987	     53.59304590	    -12.30362304	     -2.02515609	     70.48134765	      1.23013158	     33.86408075	     -2.41122990	     -7.49999987	     -4.85618417	     -0.98304501	      1.17714145	     36.84164599	    -16.40175295	     19.02534217	    118.18285003	     90.11614361	    383.44004150	    -20.45108203	    369.41306631	    117.72487239	     94.37828001
      3.63333330	    -15.33101669	     -1.30147390	     -8.47439163	      1.54422808	      0.91568349	      0.09355054	     49.60178762	     -7.43528377	     -3.46396990	     61.86479772	      1.07974441	     33.01831413	     -1.06968668	     -7.49999987	     50.54055416	    -11.51106520	     -2.62609447	     65.95904563	      1.15120252	     32.68040772	     -2.82705911	     -7.49999987	     -4.15746875	     -1.41732222	      0.86266642	     31.44981802	    -18.17537572	     19.35327476	    121.36566892	     89.98861199	    378.78580602	    -22.31748799	    368.38297161	    119.11705273	     94.36135875
      3.65000000	    -14.95377492	     -1.06093806	     -8.41063458	      1.54506058	      0.93205215	      0.08572940	     46.79712495	     -7.83631972	     -4.09125685	     57.60957418	      1.00547675	     30.96950816	     -0.94170209	     -7.49999987	     47.36579785	    -10.74698771	     -3.19752134	     61.34388297	      1.07065273	     31.76018226	     -2.82250423	     -7.49999987	     -3.50707846	     -1.59967867	      0.47005715	     26.93545421	    -20.39952513	     19.44019665	    124.68645253	     89.56741524	    374.15308900	    -22.91052198	    367.60728615	    120.77987862	     94.24436784
